<?xml version="1.0" encoding="utf-8"?>
<!-- Generator: Adobe Illustrator 26.0.2, SVG Export Plug-In . SVG Version: 6.00 Build 0)  -->
<svg version="1.1" id="Layer_1" xmlns="http://www.w3.org/2000/svg" xmlns:xlink="http://www.w3.org/1999/xlink" x="0px" y="0px"
	 viewBox="0 0 250 85.84" style="enable-background:new 0 0 250 85.84;" xml:space="preserve">
<style type="text/css">
	.st0{fill:#34A853;}
	.st1{fill:#FBBC04;}
	.st2{fill:#EA4335;}
	.st3{fill:#4285F4;}
	.st4{fill:#5F6368;}
</style>
<g>
	<g>
		<g>
			<path class="st0" d="M17.96,0c-1.88,0-3.61,1.04-4.5,2.7c-0.88,1.66-0.78,3.68,0.27,5.24l2.18-2.17
				c-0.07-0.22-0.11-0.44-0.11-0.67c0-1.19,0.96-2.15,2.15-2.15s2.15,0.96,2.15,2.15s-0.96,2.15-2.15,2.15
				c-0.23,0-0.45-0.04-0.67-0.11L15.1,9.31c1.81,1.23,4.2,1.16,5.94-0.16s2.44-3.61,1.74-5.68C22.09,1.39,20.14,0,17.96,0L17.96,0z"
				/>
			<path class="st1" d="M15.93,14.85c0-1.72-0.55-3.4-1.59-4.77l-2.82,2.82c0.88,1.62,0.57,3.62-0.77,4.89l1.54,3.75
				C14.55,20.07,15.93,17.55,15.93,14.85z"/>
			<path class="st2" d="M8.03,18.9H7.96c-1.73,0-3.27-1.1-3.83-2.74c-0.56-1.64-0.02-3.45,1.35-4.52s3.26-1.14,4.71-0.18l2.8-2.8
				c-2.72-2.21-6.56-2.38-9.47-0.42s-4.19,5.58-3.17,8.93s4.11,5.64,7.61,5.64c0.54,0,1.08-0.05,1.61-0.16L8.03,18.9z"/>
			<path class="st3" d="M18.06,22.14c-1.77,0-3.53,0.26-5.22,0.76l2.24,5.47c0.97-0.24,1.97-0.36,2.98-0.36
				c5.82,0,10.82,4.11,11.96,9.82c1.13,5.71-1.92,11.42-7.29,13.64s-11.57,0.34-14.8-4.49S5.32,35.7,9.43,31.58
				c0.86-0.86,1.84-1.58,2.91-2.15l-2.21-5.45C1.88,28.02-2.03,37.61,1.05,46.27S13.21,59.9,22.16,57.82
				c8.95-2.07,14.92-10.53,13.88-19.66s-8.77-16.02-17.96-16.02L18.06,22.14z"/>
		</g>
		<path class="st4" d="M100.46,21.34c2.29,1.36,4.17,3.33,5.43,5.68c1.31,2.44,1.98,5.18,1.94,7.95c0.03,2.77-0.64,5.5-1.94,7.95
			c-1.25,2.35-3.13,4.32-5.42,5.68c-4.85,2.79-10.81,2.79-15.66,0l0-0.01c-2.29-1.36-4.17-3.33-5.42-5.68
			c-1.31-2.44-1.98-5.18-1.94-7.95c-0.03-2.77,0.64-5.5,1.94-7.93c1.25-2.36,3.13-4.32,5.42-5.68
			C89.65,18.55,95.61,18.55,100.46,21.34z M133.49,21.34c2.29,1.36,4.17,3.33,5.43,5.68c1.31,2.44,1.98,5.18,1.94,7.95
			c0.03,2.77-0.64,5.5-1.94,7.95c-1.25,2.35-3.13,4.32-5.42,5.68c-4.85,2.79-10.81,2.79-15.66,0l0-0.01
			c-2.29-1.36-4.17-3.33-5.42-5.68c-1.31-2.44-1.98-5.18-1.94-7.95c-0.03-2.77,0.64-5.5,1.94-7.93c1.25-2.35,3.13-4.32,5.42-5.68
			C122.68,18.55,128.64,18.55,133.49,21.34z M184.5,19.23c2.9,0,5.41,0.65,7.54,1.94c2.12,1.28,3.82,3.14,4.91,5.37
			c1.17,2.45,1.76,5.13,1.7,7.85c0,0.5-0.04,1.01-0.12,1.51h-23.44c0.12,2.25,0.66,4.15,1.62,5.69c0.89,1.47,2.16,2.67,3.68,3.48
			c1.44,0.76,3.04,1.16,4.67,1.16c3.86,0,6.78-1.78,8.76-5.34l4.18,2.03c-1.19,2.31-2.97,4.26-5.16,5.66
			c-2.2,1.39-4.85,2.09-7.95,2.09c-2.67,0.04-5.3-0.66-7.6-2.02c-2.23-1.34-4.05-3.28-5.25-5.6c-1.28-2.48-1.93-5.25-1.88-8.04
			c-0.02-2.72,0.59-5.41,1.77-7.85c1.12-2.35,2.87-4.35,5.04-5.77C179.22,19.93,181.84,19.19,184.5,19.23z M58.72,7.47v38.36h18.71
			v4.83H53.64V7.47H58.72z M149.59,7.47v27.3l15.29-15.53h6.45v0.24l-12.9,13.02l12.31,17.93v0.23h-6.09l-9.8-14.65l-5.26,5.27v9.37
			h-5.08V7.47H149.59z M219.43,19.89v5.44c-1.34-0.65-2.81-0.98-4.3-0.96c-1.45-0.01-2.87,0.43-4.07,1.26
			c-1.25,0.86-2.27,2.02-2.96,3.38c-0.74,1.42-1.12,2.99-1.11,4.58v17.07h-5.07V19.25h4.84v5.83h0.24c0.6-1.67,1.75-3.07,3.47-4.19
			c1.59-1.07,3.46-1.65,5.37-1.66C217.08,19.2,218.3,19.43,219.43,19.89z M92.63,23.7c-3.71-0.01-7.13,2.01-8.9,5.28
			c-0.98,1.84-1.47,3.89-1.42,5.98c-0.05,2.08,0.44,4.14,1.42,5.98c1.31,2.4,3.53,4.17,6.16,4.91c2.63,0.74,5.45,0.38,7.82-0.99
			h-0.01c1.6-0.93,2.9-2.29,3.78-3.91c0.98-1.84,1.47-3.89,1.42-5.98c0.05-2.08-0.44-4.14-1.42-5.98c-0.87-1.63-2.18-2.98-3.77-3.91
			C96.17,24.16,94.41,23.69,92.63,23.7z M125.65,23.7c-1.79-0.01-3.56,0.46-5.11,1.36c-1.6,0.93-2.92,2.28-3.8,3.91
			c-0.98,1.84-1.47,3.89-1.42,5.98c-0.05,2.08,0.44,4.14,1.42,5.98c0.88,1.63,2.19,2.99,3.8,3.91c1.55,0.9,3.31,1.37,5.11,1.36
			c1.79,0.01,3.55-0.46,5.09-1.36h-0.01c1.59-0.94,2.9-2.29,3.77-3.91c0.98-1.84,1.47-3.89,1.42-5.98c0.05-2.08-0.44-4.14-1.42-5.98
			c-0.88-1.63-2.18-2.98-3.77-3.91C129.19,24.16,127.43,23.69,125.65,23.7z M178.59,25.93c-1.62,1.49-2.69,3.45-3.19,5.89h18.04
			c-0.09-1.3-0.45-2.56-1.04-3.71c-0.67-1.29-1.67-2.37-2.9-3.13c-1.31-0.85-2.98-1.28-4.99-1.28
			C182.32,23.65,180.19,24.45,178.59,25.93z"/>
	</g>
	<g id="Layer_2_00000136406940948519289710000017269830208004079269_">
		<g id="Layer_1-2">
			<path class="st4" d="M126.59,80.57c-2.45,0.03-4.8-0.93-6.52-2.67c-1.77-1.67-2.76-4-2.73-6.43c-0.03-2.43,0.96-4.77,2.74-6.43
				c1.72-1.74,4.07-2.71,6.52-2.68c2.33-0.03,4.58,0.87,6.24,2.51l-1.78,1.78c-1.2-1.16-2.82-1.8-4.49-1.78
				c-1.75-0.03-3.42,0.67-4.63,1.93c-1.25,1.24-1.93,2.93-1.9,4.69c-0.03,1.76,0.65,3.45,1.9,4.69c2.54,2.53,6.63,2.58,9.24,0.11
				c0.79-0.87,1.26-1.97,1.35-3.13h-5.92v-2.51h8.38c0.1,0.51,0.14,1.04,0.14,1.56c0,2.44-0.72,4.38-2.16,5.82
				C131.3,79.74,128.98,80.66,126.59,80.57z M146.06,78.89c-2.34,2.24-6.02,2.24-8.36,0c-1.13-1.1-1.75-2.62-1.71-4.19
				c-0.05-1.57,0.56-3.09,1.68-4.19c2.34-2.24,6.02-2.24,8.36,0c1.13,1.1,1.75,2.61,1.71,4.19
				C147.79,76.27,147.18,77.79,146.06,78.89z M139.54,77.25c1.21,1.29,3.23,1.35,4.52,0.14c0.05-0.05,0.1-0.09,0.14-0.14
				c0.66-0.68,1.01-1.6,0.98-2.55c0.03-0.95-0.31-1.87-0.97-2.55c-1.24-1.29-3.29-1.34-4.58-0.1c-0.04,0.03-0.07,0.07-0.1,0.1
				c-0.65,0.69-1,1.61-0.97,2.55C138.54,75.65,138.89,76.57,139.54,77.25L139.54,77.25z M158.9,78.89c-2.34,2.24-6.02,2.24-8.36,0
				c-1.13-1.1-1.75-2.62-1.71-4.19c-0.04-1.57,0.58-3.09,1.71-4.19c2.34-2.24,6.02-2.24,8.36,0c1.13,1.1,1.75,2.62,1.71,4.19
				C160.65,76.27,160.03,77.79,158.9,78.89L158.9,78.89z M152.38,77.25c1.21,1.29,3.23,1.35,4.52,0.14c0.05-0.05,0.1-0.09,0.14-0.14
				c0.66-0.68,1.01-1.6,0.98-2.55c0.03-0.95-0.31-1.87-0.97-2.55c-1.24-1.29-3.29-1.34-4.58-0.1c-0.04,0.03-0.07,0.07-0.1,0.1
				c-0.65,0.69-1,1.61-0.97,2.55c-0.03,0.95,0.33,1.87,0.99,2.55H152.38z M167.33,85.83c-1.18,0.04-2.34-0.33-3.29-1.04
				c-0.84-0.63-1.5-1.46-1.91-2.42l2.25-0.93c0.25,0.58,0.65,1.08,1.14,1.46c0.52,0.42,1.18,0.64,1.85,0.62
				c0.86,0.05,1.7-0.28,2.3-0.89c0.6-0.71,0.9-1.63,0.84-2.55v-0.85h-0.09c-0.77,0.91-1.93,1.41-3.12,1.33
				c-1.49,0-2.92-0.62-3.93-1.71c-1.11-1.09-1.72-2.59-1.69-4.15c-0.02-1.55,0.59-3.05,1.69-4.15c1.02-1.09,2.44-1.71,3.93-1.7
				c0.62-0.01,1.24,0.12,1.81,0.38c0.49,0.21,0.93,0.53,1.28,0.93h0.09v-0.98h2.44v10.53c0,2.05-0.52,3.57-1.56,4.59
				c-1.08,1.03-2.52,1.58-4.01,1.52H167.33z M167.51,78.26c0.86,0.02,1.68-0.35,2.23-1.01c0.61-0.7,0.93-1.6,0.9-2.52
				c0.03-0.93-0.29-1.84-0.9-2.55c-0.55-0.66-1.37-1.04-2.23-1.02c-0.88-0.01-1.73,0.36-2.31,1.02c-0.64,0.69-0.99,1.61-0.96,2.55
				c-0.02,0.93,0.32,1.84,0.96,2.52c0.59,0.66,1.44,1.02,2.32,1.01H167.51z M177.26,62.97v17.24h-2.58V62.97H177.26z M184.33,80.57
				c-1.56,0.04-3.06-0.57-4.15-1.69c-1.1-1.1-1.7-2.59-1.67-4.15c-0.06-1.57,0.52-3.09,1.61-4.22c1.02-1.08,2.45-1.67,3.93-1.65
				c0.68-0.01,1.35,0.13,1.98,0.39c0.56,0.23,1.08,0.57,1.51,1c0.36,0.36,0.68,0.75,0.95,1.18c0.23,0.37,0.43,0.75,0.59,1.16
				l0.27,0.67l-7.84,3.21c0.5,1.12,1.62,1.82,2.84,1.78c1.18,0,2.28-0.61,2.89-1.62l1.97,1.33c-0.5,0.71-1.15,1.32-1.89,1.78
				c-0.89,0.56-1.93,0.85-2.99,0.82H184.33z M181.06,74.52l5.24-2.17c-0.16-0.39-0.45-0.7-0.82-0.9c-0.41-0.23-0.88-0.35-1.36-0.34
				c-0.8,0.02-1.56,0.35-2.12,0.93c-0.66,0.65-1,1.56-0.93,2.49H181.06z"/>
			<path class="st4" d="M202.87,80.57c-4.48,0.1-8.19-3.45-8.29-7.93c0-0.12,0-0.24,0-0.36c-0.1-4.48,3.45-8.19,7.93-8.29
				c0.12,0,0.24,0,0.36,0c2.24-0.07,4.39,0.89,5.84,2.6l-1.42,1.37c-1.06-1.35-2.7-2.11-4.42-2.05c-1.64-0.03-3.23,0.61-4.39,1.78
				c-1.21,1.22-1.85,2.89-1.78,4.6c-0.07,1.71,0.57,3.38,1.78,4.6c1.16,1.17,2.74,1.81,4.39,1.78c1.89,0.01,3.69-0.84,4.89-2.31
				l1.42,1.42c-0.74,0.89-1.68,1.6-2.73,2.08C205.32,80.35,204.1,80.59,202.87,80.57z"/>
			<path class="st4" d="M213.05,80.21h-2.04V64.3h2.04V80.21z"/>
			<path class="st4" d="M216.38,70.64c2.23-2.2,5.82-2.2,8.05,0c1.06,1.12,1.62,2.61,1.58,4.15c0.05,1.54-0.52,3.03-1.58,4.15
				c-2.23,2.2-5.82,2.2-8.05,0c-1.06-1.12-1.62-2.61-1.58-4.15C214.76,73.25,215.32,71.76,216.38,70.64z M217.9,77.65
				c1.31,1.38,3.49,1.44,4.87,0.13c0.04-0.04,0.08-0.08,0.13-0.13c0.72-0.77,1.1-1.8,1.05-2.86c0.05-1.06-0.33-2.09-1.05-2.86
				c-1.3-1.38-3.48-1.44-4.86-0.14c-0.05,0.05-0.1,0.09-0.14,0.14c-0.72,0.77-1.1,1.8-1.05,2.86c-0.04,1.05,0.34,2.07,1.05,2.84
				V77.65z"/>
			<path class="st4" d="M237.31,80.21h-1.96V78.7h-0.09c-0.35,0.56-0.84,1.02-1.42,1.33c-0.61,0.35-1.31,0.54-2.02,0.54
				c-1.17,0.08-2.31-0.37-3.1-1.24c-0.75-0.95-1.12-2.14-1.05-3.35v-6.65h2.04v6.33c0,2.03,0.89,3.04,2.68,3.04
				c0.81,0.02,1.59-0.36,2.07-1.02c0.53-0.67,0.81-1.51,0.8-2.37v-5.98h2.04L237.31,80.21z"/>
			<path class="st4" d="M244.25,80.57c-1.4,0.01-2.74-0.6-3.65-1.66c-1.03-1.13-1.58-2.62-1.53-4.15c-0.05-1.53,0.5-3.02,1.53-4.15
				c0.91-1.06,2.25-1.67,3.65-1.66c0.78-0.01,1.54,0.17,2.23,0.53c0.6,0.3,1.12,0.76,1.48,1.33h0.09l-0.09-1.51V64.3H250v15.91
				h-1.96V78.7h-0.09c-0.36,0.57-0.88,1.03-1.48,1.33C245.79,80.4,245.02,80.58,244.25,80.57z M244.58,78.7
				c0.93,0.01,1.83-0.38,2.45-1.07c0.7-0.78,1.06-1.8,1.01-2.84c0.05-1.05-0.31-2.08-1.01-2.87c-1.25-1.35-3.36-1.44-4.71-0.19
				c-0.06,0.06-0.13,0.12-0.19,0.19c-0.71,0.78-1.07,1.81-1.02,2.87c-0.05,1.05,0.32,2.07,1.02,2.86
				C242.76,78.33,243.65,78.71,244.58,78.7z"/>
			<path class="st4" d="M55.75,76.24v3.42h-1.61v-9.22h3.55c0.88-0.05,1.75,0.24,2.43,0.79c0.61,0.54,0.94,1.32,0.91,2.13
				c0.04,0.81-0.29,1.59-0.89,2.11c-0.71,0.54-1.6,0.81-2.49,0.75L55.75,76.24z M55.75,74.95h1.95c0.47,0.03,0.93-0.11,1.3-0.4
				c0.32-0.31,0.49-0.74,0.45-1.18c0.02-0.44-0.15-0.87-0.46-1.18c-0.36-0.32-0.82-0.48-1.3-0.44h-1.95V74.95z"/>
			<path class="st4" d="M67.28,77.51h-3.55l-0.75,2.15h-1.69l3.51-9.22h1.43l3.5,9.22h-1.7L67.28,77.51z M64.16,76.22h2.67
				l-1.34-3.8L64.16,76.22z"/>
			<path class="st4" d="M74.93,76.12h-1.78v3.55h-1.6v-9.23h3.24c0.88-0.06,1.75,0.2,2.46,0.72c0.6,0.52,0.92,1.28,0.87,2.07
				c0.02,0.56-0.14,1.1-0.46,1.56c-0.31,0.43-0.75,0.77-1.24,0.96l2.07,3.84v0.08h-1.72L74.93,76.12z M73.15,74.83h1.65
				c0.46,0.03,0.91-0.12,1.27-0.41c0.31-0.29,0.48-0.7,0.46-1.12c0.02-0.43-0.15-0.85-0.46-1.15c-0.35-0.29-0.8-0.44-1.26-0.41
				h-1.67L73.15,74.83z"/>
			<path class="st4" d="M86.82,71.73h-2.87v7.93h-1.59v-7.93H79.5v-1.29h7.32V71.73z"/>
			<path class="st4" d="M101.19,75.29c0.01,0.81-0.14,1.62-0.47,2.37c-0.28,0.65-0.75,1.2-1.34,1.58c-1.24,0.73-2.77,0.73-4,0
				c-0.59-0.38-1.06-0.92-1.35-1.56c-0.33-0.73-0.5-1.53-0.49-2.34v-0.52c-0.01-0.81,0.15-1.62,0.47-2.37
				c0.28-0.65,0.75-1.2,1.35-1.58c1.23-0.73,2.77-0.73,4,0c0.59,0.37,1.06,0.91,1.34,1.55c0.33,0.74,0.5,1.55,0.49,2.37V75.29z
				 M99.59,74.79c0.05-0.83-0.16-1.66-0.59-2.37c-0.68-0.9-1.97-1.08-2.87-0.4c-0.15,0.11-0.28,0.25-0.4,0.4
				c-0.43,0.69-0.63,1.49-0.59,2.3v0.53c-0.05,0.83,0.16,1.66,0.59,2.37c0.37,0.55,1,0.87,1.66,0.85c0.65,0.03,1.27-0.28,1.64-0.81
				c0.44-0.71,0.64-1.54,0.59-2.37L99.59,74.79z"/>
			<path class="st4" d="M108.88,75.76h-3.71v3.91h-1.6v-9.22h5.86v1.29h-4.26v2.74h3.71V75.76z"/>
		</g>
	</g>
</g>
</svg>
